<svg xmlns="http://www.w3.org/2000/svg" width="217" height="27" fill="none"><path fill="#fff" d="M19.208 18.452v7.905H15.82V5.535h3.133v2.12c1.044-1.642 2.705-2.463 4.983-2.463 2.126 0 3.802.744 5.026 2.233 1.225 1.49 1.837 3.342 1.837 5.557 0 2.215-.612 4.062-1.837 5.542-1.224 1.479-2.9 2.219-5.026 2.219-2.164 0-3.74-.763-4.727-2.29Zm-.114-5.47c0 1.374.375 2.51 1.125 3.408.75.898 1.761 1.346 3.033 1.346 1.253 0 2.258-.453 3.019-1.36.758-.907 1.138-2.038 1.138-3.394 0-1.394-.38-2.55-1.138-3.466-.76-.916-1.766-1.374-3.019-1.374-1.272 0-2.284.453-3.033 1.36-.75.907-1.125 2.067-1.125 3.48Zm13.069-4.411V5.535h5.553V20.4h-3.39V8.571h-2.163Zm16.061 12.172c-2.277 0-4.124-.754-5.538-2.263-1.415-1.508-2.122-3.34-2.122-5.498 0-2.157.707-3.996 2.122-5.513 1.414-1.519 3.26-2.277 5.538-2.277 2.298 0 4.153.758 5.567 2.277 1.415 1.517 2.122 3.356 2.122 5.513 0 2.158-.707 3.99-2.122 5.498-1.414 1.51-3.27 2.263-5.567 2.263Zm-4.27-7.761c0 1.413.402 2.559 1.21 3.436.806.879 1.826 1.318 3.06 1.318 1.254 0 2.283-.439 3.09-1.318.807-.877 1.21-2.023 1.21-3.436 0-1.433-.403-2.587-1.21-3.466-.807-.878-1.836-1.317-3.09-1.317-1.234 0-2.254.44-3.06 1.317-.808.879-1.21 2.033-1.21 3.466Zm17.939-7.447v1.976c.342-.649.906-1.197 1.694-1.646.788-.449 1.742-.673 2.863-.673 1.745 0 3.099.535 4.057 1.603.959 1.07 1.439 2.492 1.439 4.268v9.336h-3.39v-8.907c0-1.05-.241-1.875-.725-2.477-.485-.601-1.22-.902-2.208-.902-1.082 0-1.931.325-2.548.974s-.925 1.546-.925 2.692v8.62h-3.39V5.535h3.133Zm27.365 8.421H78.01c.132 1.184.56 2.124 1.282 2.82.72.698 1.67 1.046 2.847 1.046.779 0 1.48-.19 2.107-.573a3.19 3.19 0 0 0 1.338-1.547h3.418c-.456 1.51-1.306 2.726-2.549 3.652-1.243.926-2.71 1.389-4.399 1.389-2.203 0-3.983-.735-5.34-2.205-1.357-1.47-2.036-3.332-2.036-5.585 0-2.196.683-4.038 2.05-5.528 1.368-1.489 3.133-2.233 5.297-2.233 2.165 0 3.915.73 5.254 2.19 1.338 1.461 2.007 3.299 2.007 5.514l-.028 1.06ZM82.025 7.97c-1.063 0-1.946.315-2.648.945-.703.63-1.14 1.47-1.31 2.52h7.86c-.152-1.05-.57-1.89-1.254-2.52-.683-.63-1.566-.945-2.648-.945Zm23.693 5.986h-11.25c.134 1.184.56 2.124 1.283 2.82.72.698 1.67 1.046 2.847 1.046.778 0 1.482-.19 2.108-.573a3.195 3.195 0 0 0 1.338-1.547h3.417c-.455 1.51-1.305 2.726-2.549 3.652-1.243.926-2.709 1.389-4.399 1.389-2.202 0-3.983-.735-5.34-2.205-1.357-1.47-2.036-3.332-2.036-5.585 0-2.196.684-4.038 2.051-5.528 1.367-1.489 3.133-2.233 5.296-2.233 2.164 0 3.916.73 5.254 2.19 1.339 1.461 2.008 3.299 2.008 5.514l-.028 1.06ZM98.484 7.97c-1.063 0-1.946.315-2.648.945-.703.63-1.139 1.47-1.31 2.52h7.859c-.152-1.05-.568-1.89-1.252-2.52-.683-.63-1.566-.945-2.648-.945Zm18.056-2.55V8.6a5.422 5.422 0 0 0-.769-.058c-2.545 0-3.817 1.375-3.817 4.124V20.4h-3.388V5.535h3.133v2.062c.835-1.47 2.287-2.205 4.356-2.205l.485.028Zm7.09 15.323c-2.031 0-3.56-.477-4.586-1.432-1.025-.954-1.585-2.176-1.679-3.666h3.275a2.14 2.14 0 0 0 .883 1.661c.549.42 1.319.63 2.305.63.873 0 1.548-.152 2.023-.458.474-.306.712-.717.712-1.232 0-.573-.29-.998-.868-1.274-.58-.277-1.282-.503-2.108-.678l-2.507-.529a3.865 3.865 0 0 1-2.135-1.242c-.58-.649-.868-1.536-.868-2.663 0-1.298.535-2.4 1.609-3.308 1.071-.907 2.491-1.36 4.257-1.36 1.005 0 1.894.157 2.662.473.77.314 1.367.73 1.795 1.245.426.515.749 1.041.967 1.575.219.535.346 1.079.385 1.633h-3.246a2.34 2.34 0 0 0-.755-1.518c-.447-.42-1.077-.63-1.894-.63-.815 0-1.443.152-1.879.455a1.45 1.45 0 0 0-.655 1.258c0 .498.293.875.88 1.134.587.257 1.295.478 2.121.662.825.185 1.661.37 2.505.56.844.188 1.552.627 2.123 1.316.572.69.858 1.606.858 2.749 0 1.336-.537 2.444-1.61 3.321-1.072.88-2.596 1.318-4.57 1.318ZM37.6 0h-3.488v3.51H37.6V0Z"/><path fill="url(#a)" d="M3.106 5.386H.026v3.098h3.08V5.386Z"/><path fill="url(#b)" d="M3.106 17.503H.026v3.098h3.08v-3.098Z"/><path fill="url(#c)" d="M9.138 11.513h-3.08v3.098h3.08v-3.098Z"/><path fill="url(#d)" d="M3.08 5.386H0v3.098h3.08V5.386Z"/><path fill="url(#e)" d="M6.134 8.483h-3.08v3.098h3.08V8.483Z"/><path fill="url(#f)" d="M9.189 11.581h-3.08v3.098h3.08V11.58Z"/><path fill="url(#g)" d="M6.134 14.679h-3.08v3.097h3.08V14.68Z"/><path fill="url(#h)" d="M3.08 17.776H0v3.098h3.08v-3.098Z"/><path fill="url(#i)" d="M130.81 21.513h10.77v1.683h-10.77v-1.683Z"/><path fill="url(#j)" d="M165.478 21.513h10.771v1.683h-10.771v-1.683Z"/><path fill="url(#k)" d="M153.537 14.394c-2.588 0-4.354.056-5.298.17-.926.094-1.606.255-2.04.481-.775.435-1.162 1.134-1.162 2.097 0 1.851 1.096 2.777 3.287 2.777 1.681 0 2.966-.378 3.853-1.134.907-.755 1.36-1.766 1.36-3.031v-1.36Zm-5.44 7.196c-1.643 0-2.899-.396-3.768-1.19-.85-.812-1.275-1.879-1.275-3.201 0-.87.226-1.644.68-2.324.472-.68 1.114-1.18 1.926-1.501.68-.265 1.559-.435 2.636-.51 1.076-.095 2.823-.142 5.241-.142v-.935c0-2.38-1.36-3.57-4.08-3.57-2.342 0-3.702.954-4.08 2.862h-1.955c.208-1.398.803-2.513 1.785-3.344 1.001-.831 2.446-1.247 4.335-1.247 2.021 0 3.523.473 4.505 1.417 1.001.945 1.502 2.248 1.502 3.91v9.435h-1.927v-2.096c-1.001 1.624-2.843 2.436-5.525 2.436Z"/><path fill="url(#l)" d="M158.529 8.529v-1.7h4.392V21.25h-2.012V8.53h-2.38Zm4.42-5.639c-.264.246-.604.368-1.02.368-.415 0-.765-.122-1.048-.368a1.344 1.344 0 0 1-.397-.992v-.113c0-.208.038-.387.113-.538.265-.548.709-.822 1.332-.822.416 0 .756.142 1.02.425.283.264.425.604.425 1.02 0 .416-.142.756-.425 1.02Z"/><path fill="url(#m)" d="M178.714 18.077V0h2.012v17.85c0 .586.094.992.283 1.219.208.227.576.34 1.105.34l.567-.057v1.842a6.044 6.044 0 0 1-1.049.085c-1.945 0-2.918-1.067-2.918-3.202Z"/><path fill="url(#n)" d="M195.483 14.394c-2.588 0-4.354.056-5.298.17-.926.094-1.606.255-2.04.481-.775.435-1.162 1.134-1.162 2.097 0 1.851 1.095 2.777 3.287 2.777 1.681 0 2.965-.378 3.853-1.134.907-.755 1.36-1.766 1.36-3.031v-1.36Zm-5.44 7.196c-1.643 0-2.9-.396-3.768-1.19-.85-.812-1.275-1.879-1.275-3.201 0-.87.226-1.644.68-2.324.472-.68 1.114-1.18 1.926-1.501.68-.265 1.559-.435 2.635-.51 1.077-.095 2.824-.142 5.242-.142v-.935c0-2.38-1.36-3.57-4.08-3.57-2.342 0-3.702.954-4.08 2.862h-1.955c.208-1.398.803-2.513 1.785-3.344 1.001-.831 2.446-1.247 4.335-1.247 2.021 0 3.523.473 4.505 1.417 1.001.945 1.502 2.248 1.502 3.91v9.435h-1.927v-2.096c-1.001 1.624-2.843 2.436-5.525 2.436Z"/><path fill="url(#o)" d="M204.328 9.435c1.096-1.964 2.89-2.947 5.384-2.947 2.134 0 3.806.737 5.015 2.21 1.209 1.455 1.813 3.24 1.813 5.356 0 2.096-.604 3.881-1.813 5.355-1.209 1.454-2.881 2.181-5.015 2.181-2.532 0-4.354-1-5.469-3.003v2.663h-1.927V0h2.012v9.435Zm-.056 4.619c0 1.624.453 2.984 1.36 4.08.906 1.095 2.143 1.643 3.711 1.643s2.815-.548 3.74-1.643c.945-1.096 1.417-2.456 1.417-4.08 0-1.644-.472-3.013-1.417-4.109-.925-1.095-2.172-1.643-3.74-1.643s-2.805.548-3.711 1.643c-.907 1.077-1.36 2.446-1.36 4.109Z"/><defs><linearGradient id="a" x1="-5.686" x2="1.038" y1="22.627" y2="1.761" gradientUnits="userSpaceOnUse"><stop stop-color="#5CA8FE"/><stop offset=".24" stop-color="#687AED" stop-opacity=".989"/><stop offset="1" stop-color="#DA5F9E" stop-opacity=".94"/></linearGradient><linearGradient id="b" x1="-5.686" x2="1.038" y1="22.627" y2="1.761" gradientUnits="userSpaceOnUse"><stop stop-color="#5CA8FE"/><stop offset=".24" stop-color="#687AED" stop-opacity=".989"/><stop offset="1" stop-color="#DA5F9E" stop-opacity=".94"/></linearGradient><linearGradient id="c" x1="-5.686" x2="1.038" y1="22.627" y2="1.761" gradientUnits="userSpaceOnUse"><stop stop-color="#5CA8FE"/><stop offset=".24" stop-color="#687AED" stop-opacity=".989"/><stop offset="1" stop-color="#DA5F9E" stop-opacity=".94"/></linearGradient><linearGradient id="d" x1="-5.686" x2="1.038" y1="22.627" y2="1.761" gradientUnits="userSpaceOnUse"><stop stop-color="#5CA8FE"/><stop offset=".24" stop-color="#687AED" stop-opacity=".989"/><stop offset="1" stop-color="#DA5F9E" stop-opacity=".94"/></linearGradient><linearGradient id="e" x1="-5.686" x2="1.038" y1="22.627" y2="1.761" gradientUnits="userSpaceOnUse"><stop stop-color="#5CA8FE"/><stop offset=".24" stop-color="#687AED" stop-opacity=".989"/><stop offset="1" stop-color="#DA5F9E" stop-opacity=".94"/></linearGradient><linearGradient id="f" x1="-5.686" x2="1.038" y1="22.627" y2="1.761" gradientUnits="userSpaceOnUse"><stop stop-color="#5CA8FE"/><stop offset=".24" stop-color="#687AED" stop-opacity=".989"/><stop offset="1" stop-color="#DA5F9E" stop-opacity=".94"/></linearGradient><linearGradient id="g" x1="-5.686" x2="1.038" y1="22.627" y2="1.761" gradientUnits="userSpaceOnUse"><stop stop-color="#5CA8FE"/><stop offset=".24" stop-color="#687AED" stop-opacity=".989"/><stop offset="1" stop-color="#DA5F9E" stop-opacity=".94"/></linearGradient><linearGradient id="h" x1="-5.686" x2="1.038" y1="22.627" y2="1.761" gradientUnits="userSpaceOnUse"><stop stop-color="#5CA8FE"/><stop offset=".24" stop-color="#687AED" stop-opacity=".989"/><stop offset="1" stop-color="#DA5F9E" stop-opacity=".94"/></linearGradient><linearGradient id="i" x1="105.568" x2="230.606" y1="29.45" y2="14.169" gradientUnits="userSpaceOnUse"><stop stop-color="#5CA8FE"/><stop offset=".24" stop-color="#687AED" stop-opacity=".989"/><stop offset="1" stop-color="#DA5F9E" stop-opacity=".94"/></linearGradient><linearGradient id="j" x1="105.568" x2="230.606" y1="29.45" y2="14.169" gradientUnits="userSpaceOnUse"><stop stop-color="#5CA8FE"/><stop offset=".24" stop-color="#687AED" stop-opacity=".989"/><stop offset="1" stop-color="#DA5F9E" stop-opacity=".94"/></linearGradient><linearGradient id="k" x1="105.568" x2="230.606" y1="29.45" y2="14.169" gradientUnits="userSpaceOnUse"><stop stop-color="#5CA8FE"/><stop offset=".24" stop-color="#687AED" stop-opacity=".989"/><stop offset="1" stop-color="#DA5F9E" stop-opacity=".94"/></linearGradient><linearGradient id="l" x1="105.568" x2="230.606" y1="29.45" y2="14.169" gradientUnits="userSpaceOnUse"><stop stop-color="#5CA8FE"/><stop offset=".24" stop-color="#687AED" stop-opacity=".989"/><stop offset="1" stop-color="#DA5F9E" stop-opacity=".94"/></linearGradient><linearGradient id="m" x1="105.568" x2="230.606" y1="29.45" y2="14.169" gradientUnits="userSpaceOnUse"><stop stop-color="#5CA8FE"/><stop offset=".24" stop-color="#687AED" stop-opacity=".989"/><stop offset="1" stop-color="#DA5F9E" stop-opacity=".94"/></linearGradient><linearGradient id="n" x1="105.568" x2="230.606" y1="29.45" y2="14.169" gradientUnits="userSpaceOnUse"><stop stop-color="#5CA8FE"/><stop offset=".24" stop-color="#687AED" stop-opacity=".989"/><stop offset="1" stop-color="#DA5F9E" stop-opacity=".94"/></linearGradient><linearGradient id="o" x1="105.568" x2="230.606" y1="29.45" y2="14.169" gradientUnits="userSpaceOnUse"><stop stop-color="#5CA8FE"/><stop offset=".24" stop-color="#687AED" stop-opacity=".989"/><stop offset="1" stop-color="#DA5F9E" stop-opacity=".94"/></linearGradient></defs></svg>